Coordinates
version=1
nRows=11
nColumns=63
inDegrees=yes

Units are S.I. units (second, meters, Newtons, ...)
If the header above contains a line with 'inDegrees', this indicates whether rotational values are in degrees (yes) or radians (no).

endheader
time	pelvis_tilt	pelvis_list	pelvis_rotation	pelvis_tx	pelvis_ty	pelvis_tz	hip_flexion_r	hip_adduction_r	hip_rotation_r	knee_angle_r	knee_angle_r_beta	ankle_angle_r	subtalar_angle_r	mtp_angle_r	hip_flexion_l	hip_adduction_l	hip_rotation_l	knee_angle_l	knee_angle_l_beta	ankle_angle_l	subtalar_angle_l	mtp_angle_l	L5_S1_Flex_Ext	L5_S1_Lat_Bending	L5_S1_axial_rotation	L4_L5_Flex_Ext	L4_L5_Lat_Bending	L4_L5_axial_rotation	L3_L4_Flex_Ext	L3_L4_Lat_Bending	L3_L4_axial_rotation	L2_L3_Flex_Ext	L2_L3_Lat_Bending	L2_L3_axial_rotation	L1_L2_Flex_Ext	L1_L2_Lat_Bending	L1_L2_axial_rotation	L1_T12_Flex_Ext	L1_T12_Lat_Bending	L1_T12_axial_rotation	Abs_r3	Abs_r2	Abs_r1	Abs_t1	Abs_t2	neck_flexion	neck_bending	neck_rotation	arm_flex_r	arm_add_r	arm_rot_r	elbow_flex_r	pro_sup_r	wrist_flex_r	wrist_dev_r	arm_flex_l	arm_add_l	arm_rot_l	elbow_flex_l	pro_sup_l	wrist_flex_l	wrist_dev_l
      3.37288136	     -5.53659375	     -3.51577052	     98.09498231	      0.06939110	      0.44398425	      0.83663683	      3.35216718	     -2.22228239	    -12.59552090	      6.64060376	      0.11590040	     29.39774593	     16.66284967	      0.00000000	      4.85949648	      2.93989452	      4.19814216	      7.46494022	      0.13028779	     24.51165408	     -1.66275137	      0.00000000	      0.27232174	     -0.39821854	     -0.50714478	      0.50572870	     -0.52963066	     -0.53884132	      0.44739739	     -0.96822856	     -0.53884132	      0.31123652	     -0.96822856	     -0.44375168	      0.25287797	     -0.81204725	     -0.41205513	      0.15560464	     -0.61684052	     -0.38035858	      1.94516696	     -4.50472779	     -2.82058710	      0.00000000	      0.00000000	     27.24199214	     -5.96802886	      8.39685269	      9.95813740	     -7.96221712	     45.30901333	     33.18882716	     57.30536049	     -6.74274516	      3.86190668	     10.84096964	     -8.77694491	     49.55060133	     42.59137679	     88.88869570	     -5.90906422	      3.39682505
      3.38983051	     -5.65144271	     -3.48933470	     97.57604868	      0.07031494	      0.44419628	      0.83597302	      3.32089201	     -2.31089652	    -12.46079866	      6.62260502	      0.11558626	     29.39817255	     17.14126874	      0.00000000	      4.63320886	      3.01103581	      3.80071997	      7.32285225	      0.12780788	     24.03606406	     -1.89182652	      0.00000000	      0.27752773	     -0.40651127	     -0.42505097	      0.51539675	     -0.54065999	     -0.45161665	      0.45595031	     -0.98839150	     -0.45161665	      0.31718645	     -0.98839150	     -0.37191960	      0.25771225	     -0.82895778	     -0.34535391	      0.15857935	     -0.62968595	     -0.31878823	      1.98235284	     -4.59853677	     -2.36400598	      0.00000000	      0.00000000	     27.18425282	     -5.83084364	      8.82527403	     10.02006278	     -7.86244984	     46.02598444	     32.80168398	     59.70022171	     -7.38438615	      2.46230385	     10.62650755	     -8.93307843	     49.73094280	     42.46857244	     88.92955312	     -5.85437206	      3.60564238
      3.40677966	     -5.71636459	     -3.47401551	     97.49236753	      0.07051408	      0.44436039	      0.83549379	      3.18673029	     -2.34900453	    -12.37578213	      6.45024191	      0.11257796	     29.35501160	     17.18047632	      0.00000000	      4.53337253	      3.07400669	      3.54002770	      7.44972535	      0.13002224	     23.29549760	     -1.96204358	      0.00000000	      0.28137498	     -0.40944301	     -0.40546255	      0.52254148	     -0.54455920	     -0.43080396	      0.46227096	     -0.99551973	     -0.43080396	      0.32158347	     -0.99551973	     -0.35477973	      0.26128481	     -0.83493618	     -0.32943832	      0.16077767	     -0.63422722	     -0.30409691	      2.00983338	     -4.63170117	     -2.25506107	      0.00000000	      0.00000000	     27.14185322	     -5.94134645	      8.95430496	      9.91705937	     -7.84883175	     46.16414602	     32.74357353	     59.89574811	     -7.42899320	      2.34289351	     10.55710387	     -8.98964799	     49.99273313	     42.21150525	     88.96024095	     -5.82169259	      3.76291407
      3.42372881	     -5.75785940	     -3.42863290	     97.40018571	      0.07078371	      0.44447444	      0.83506467	      3.02716557	     -2.34563492	    -12.24043662	      6.26266958	      0.10930420	     29.33257750	     17.23274362	      0.00000000	      4.40609410	      3.09249463	      3.28044396	      7.63395222	      0.13323760	     22.46596967	     -1.99232032	      0.00000000	      0.28096963	     -0.41059585	     -0.38481401	      0.52178869	     -0.54609248	     -0.40886488	      0.46160500	     -0.99832274	     -0.40886488	      0.32112019	     -0.99832274	     -0.33671225	      0.26090840	     -0.83728705	     -0.31266138	      0.16054604	     -0.63601297	     -0.28861050	      2.00693795	     -4.64474233	     -2.14022006	      0.00000000	      0.00000000	     27.09343002	     -6.02503586	      9.08874158	      9.83995063	     -7.82454023	     46.34804032	     32.60483697	     60.10921106	     -7.55910454	      2.26774298	     10.54417551	     -9.02836768	     50.24157799	     41.96608209	     88.95930907	     -5.78311625	      3.94228546
      3.44067797	     -5.93162731	     -3.26185107	     97.04367623	      0.07141197	      0.44481225	      0.83454550	      2.63057287	     -2.42301044	    -11.80147389	      5.79860650	      0.10120478	     29.05036353	     17.27283306	      0.00000000	      4.08945506	      3.23067623	      2.82070002	      7.75371991	      0.13532794	     21.76444004	     -2.18745153	      0.00000000	      0.26509701	     -0.42208189	     -0.33364896	      0.49231165	     -0.56136892	     -0.35450202	      0.43552787	     -1.02624991	     -0.35450202	      0.30297937	     -1.02624991	     -0.29194284	      0.24616908	     -0.86070939	     -0.27108978	      0.15147643	     -0.65380485	     -0.25023672	      1.89356142	     -4.77467478	     -1.85565541	      0.00000000	      0.00000000	     26.98817598	     -6.16803689	      9.51257508	      9.92450002	     -7.66522694	     46.87141337	     32.20789717	     60.77384616	     -8.21012545	      2.13912912	     10.70778212	     -9.08474232	     50.79148768	     41.56125543	     88.91167773	     -5.66706620	      4.44467050
      3.45762712	     -5.95045983	     -3.11459040	     96.74716387	      0.07210836	      0.44489342	      0.83421920	      2.40989075	     -2.34584991	    -10.95435019	      5.59616931	      0.09767158	     28.97429358	     16.76562985	      0.00000000	      3.78605119	      3.17455224	      2.31032464	      7.69558651	      0.13431332	     21.34068236	     -1.97694372	      0.00000000	      0.25231075	     -0.41953079	     -0.32777928	      0.46856629	     -0.55797595	     -0.34826548	      0.41452133	     -1.02004717	     -0.34826548	      0.28836595	     -1.02004717	     -0.28680687	      0.23429576	     -0.85550719	     -0.26632066	      0.14417036	     -0.64985320	     -0.24583446	      1.80223043	     -4.74581622	     -1.82301001	      0.00000000	      0.00000000	     26.91683099	     -5.99310962	      9.93856920	      9.99954675	     -7.59216119	     47.55128028	     32.18972006	     61.69057906	     -9.66162198	      2.03650225	     10.55488656	     -9.26404454	     50.67705983	     41.55902689	     88.85525120	     -5.79168872	      4.78470436
      3.47457627	     -5.93602827	     -2.92382575	     96.59850483	      0.07243924	      0.44509574	      0.83440144	      2.09313797	     -2.23681628	    -10.20822096	      5.26148084	      0.09183016	     28.75819212	     16.17566417	      0.00000000	      3.65117857	      3.08368663	      1.69090324	      7.90125210	      0.13790286	     21.37126136	     -1.45137379	      0.00000000	      0.22749091	     -0.41041884	     -0.34010053	      0.42247338	     -0.54585706	     -0.36135682	      0.37374482	     -0.99789237	     -0.36135682	      0.25999937	     -0.99789237	     -0.29758797	      0.21124806	     -0.83692610	     -0.27633168	      0.12998831	     -0.63573878	     -0.25507540	      1.62494485	     -4.64274000	     -1.89153714	      0.00000000	      0.00000000	     26.82118564	     -6.17454511	     10.20736968	     10.00651997	     -7.50188903	     47.45682554	     32.18975802	     61.25652303	     -9.89016602	      2.22468306	     10.61545692	     -9.35868106	     50.83949955	     41.39011538	     88.83116414	     -6.14085428	      4.86284872
      3.49152542	     -5.93814625	     -2.87085879	     96.61541264	      0.07228878	      0.44500910	      0.83413668	      1.92810138	     -2.23469204	    -10.56616095	      5.07735694	      0.08861660	     28.79807283	     16.72345662	      0.00000000	      3.29653515	      3.28600855	      4.65083513	      7.38020386	      0.12880886	     20.38212238	     -5.58272382	      0.00000000	      0.22989428	     -0.40261675	     -0.43814849	      0.42693667	     -0.53548028	     -0.46553277	      0.37769332	     -0.97892237	     -0.46553277	      0.26274618	     -0.97892237	     -0.38337993	      0.21347983	     -0.82101608	     -0.35599565	      0.13136159	     -0.62365335	     -0.32861137	      1.64211187	     -4.55448120	     -2.43685045	      0.00000000	      0.00000000	     26.79846845	     -5.87767297	     11.02147139	      9.66705643	     -7.19943661	     45.74212591	     32.44749720	     64.39908090	    -10.22414083	      3.18541800	      9.89630984	     -9.44957898	     49.04572362	     41.80164004	     88.87587042	     -6.10703955	      5.21738760
      3.50847458	     -5.92572569	     -2.75059540	     96.44223663	      0.07252470	      0.44502652	      0.83430908	      1.73534991	     -2.17454292	    -10.15484676	      4.86999093	      0.08499738	     28.70732884	     16.50754864	      0.00000000	      3.11108009	      3.27531484	      4.95701266	      7.26308993	      0.12676483	     20.34869349	     -6.23806854	      0.00000000	      0.21718314	     -0.39409915	     -0.46858386	      0.40333080	     -0.52415186	     -0.49787035	      0.35681017	     -0.95821266	     -0.49787035	      0.24821861	     -0.95821266	     -0.41001088	      0.20167626	     -0.80364698	     -0.38072439	      0.12409844	     -0.61045958	     -0.35143790	      1.55131743	     -4.45812836	     -2.60612285	      0.00000000	      0.00000000	     26.73144043	     -5.69649349	     11.59475166	      9.53879269	     -7.06852372	     45.00852780	     32.66413671	     65.61350452	    -10.52373875	      3.71118017	      9.61191874	     -9.57749629	     48.32210243	     42.08395642	     88.91562197	     -6.94032273	      4.95015204
      3.52542373	     -5.93622716	     -2.61510047	     96.34968836	      0.07285877	      0.44508619	      0.83462168	      1.50066192	     -2.11693331	     -9.81182026	      4.61651107	      0.08057332	     28.58441163	     16.20285654	      0.00000000	      2.99626900	      3.18461818	      3.99497250	      7.28559225	      0.12715757	     20.84769379	     -4.91061499	      0.00000000	      0.20027021	     -0.39631756	     -0.45128211	      0.37192180	     -0.52710236	     -0.47948724	      0.32902392	     -0.96360652	     -0.47948724	      0.22888882	     -0.96360652	     -0.39487185	      0.18597091	     -0.80817078	     -0.36666671	      0.11443440	     -0.61389591	     -0.33846158	      1.43051005	     -4.48322354	     -2.50989571	      0.00000000	      0.00000000	     26.60291819	     -5.75719652	     11.33157415	      9.40441334	     -7.06740562	     44.82390737	     32.85419091	     64.48923201	    -10.51809444	      3.71513556	      9.66950497	     -9.70679803	     48.39095553	     42.24730191	     88.94392393	     -8.14528117	      4.39524108
      3.54237288	     -5.97738682	     -2.55927262	     96.35591443	      0.07270421	      0.44498393	      0.83490866	      1.42061307	     -2.17115882	    -10.04848129	      4.56822254	      0.07973052	     28.65493623	     16.49712923	      0.00000000	      2.81061209	      3.36255513	      6.01439270	      6.99592507	      0.12210193	     20.34807662	     -7.81189237	      0.00000000	      0.19161920	     -0.39781497	     -0.41093134	      0.35585601	     -0.52909391	     -0.43661454	      0.31481118	     -0.96724733	     -0.43661454	      0.21900158	     -0.96724733	     -0.35956492	      0.17793759	     -0.81122429	     -0.33388171	      0.10949121	     -0.61621539	     -0.30819850	      1.36871676	     -4.50016254	     -2.28547681	      0.00000000	      0.00000000	     26.52310864	     -5.86736150	     11.14877397	      8.54996048	     -6.74300615	     41.07888530	     33.32299105	     68.46176653	     -9.83850716	      5.25621588	      9.80603392	     -9.72389207	     48.65490445	     42.36759596	     89.00931004	     -9.33963144	      3.64056127
